<svg width="190" height="88" viewBox="0 0 190 88" fill="none" xmlns="http://www.w3.org/2000/svg"><path d="M51.4922 25.9671L38.6557 33.5716C38.4372 33.7011 38.1792 33.4792 38.2747 33.2442L44.673 17.5207C44.7887 17.2366 44.409 17.0161 44.2191 17.2571L34.5943 29.4693C34.4268 29.6818 34.0856 29.5363 34.1234 29.2686L36.8982 9.60298C36.9417 9.29432 36.5085 9.17734 36.3902 9.46578L29.1654 27.1073C29.0604 27.3638 28.6814 27.3072 28.6563 27.0311L26.2117 0.240769C26.1825 -0.0802563 25.7129 -0.0802563 25.6837 0.240769L23.2393 27.0311C23.214 27.3072 22.8351 27.3638 22.73 27.1073L15.5052 9.46578C15.3871 9.17734 14.9537 9.29432 14.9973 9.60298L17.7722 29.2686C17.81 29.5363 17.4688 29.6818 17.3011 29.4693L7.67631 17.2571C7.4864 17.0161 7.10674 17.2366 7.22236 17.5207L13.6207 33.2442C13.7162 33.4792 13.458 33.7011 13.2397 33.5716L0.403231 25.9671C0.128652 25.8045 -0.146596 26.176 0.0894985 26.3905L25.9478 49.9068L51.8059 26.3905C52.042 26.176 51.7668 25.8045 51.4922 25.9671Z" fill="#323232"/><path d="M51.6155 62.2105L40.9192 51.4907C40.5557 51.1264 39.9721 51.5839 40.24 52.0231L47.8954 64.5695L37.452 54.2033C37.1266 53.8803 36.5868 54.216 36.7337 54.6501L42.0615 70.4018L33.5792 57.158C33.3302 56.7695 32.7263 56.9854 32.7812 57.4435L35.1883 77.5653L28.9098 58.9117C28.7589 58.4633 28.1006 58.5451 28.0643 59.0167L25.9475 86.3673L23.8307 59.0167C23.7942 58.5451 23.1361 58.4633 22.9852 58.9117L16.7065 77.5653L19.1138 57.4435C19.1685 56.9854 18.5647 56.7695 18.3157 57.158L9.83334 70.4018L15.1611 54.6501C15.308 54.216 14.7682 53.8803 14.4428 54.2033L3.99925 64.5695L11.6548 52.0231C11.9227 51.5839 11.3391 51.1264 10.9757 51.4907L0.279297 62.2105L25.9475 88.0002L51.6155 62.2105Z" fill="#323232"/><path d="M68.8587 26.0508V34.7554C68.8587 35.3923 68.8816 36.369 69.6327 37.0963C70.0873 37.5281 70.8155 37.8236 71.4986 37.8236C72.1814 37.8236 72.8867 37.5512 73.319 37.1645C74.2296 36.369 74.2067 35.2552 74.2067 34.4146V26.0508H78.1435V34.4828C78.1435 36.0736 78.0752 37.7327 76.4365 39.3923C75.1625 40.6876 73.5697 41.2787 71.4303 41.2787C69.0411 41.2787 67.334 40.4603 66.4012 39.4605C65.0812 38.0281 64.9219 36.0966 64.9219 34.4828V26.0508H68.8587Z" fill="#323232"/><path d="M80.0508 30.7782H83.6918V32.0506C84.6929 30.7331 86.0358 30.5508 86.9235 30.5508C87.9697 30.5508 89.0851 30.8011 89.9268 31.6417C90.792 32.5053 90.8825 33.3688 90.8825 34.4828V40.9372H87.2415V35.801C87.2415 35.2101 87.2646 34.3235 86.7869 33.8235C86.4451 33.4601 85.99 33.3919 85.6257 33.3919C85.0571 33.3919 84.5794 33.5963 84.2834 33.8688C83.9195 34.2102 83.6918 34.8693 83.6918 35.4826V40.9372H80.0508V30.7782Z" fill="#323232"/><path d="M96.4369 30.7778V40.9368H92.7959V30.7778H96.4369ZM94.6164 24.5049C95.7539 24.5049 96.664 25.4143 96.664 26.5504C96.664 27.6866 95.7539 28.596 94.6164 28.596C93.4783 28.596 92.5684 27.6866 92.5684 26.5504C92.5684 25.4143 93.4783 24.5049 94.6164 24.5049Z" fill="#323232"/><path d="M101.536 30.7783L103.971 35.9826L106.451 30.7783H110.502L105.199 40.9373H102.72L97.4629 30.7783H101.536Z" fill="#323232"/><path d="M117.694 34.4372C117.603 34.0506 117.375 33.6188 117.102 33.3462C116.625 32.8686 115.965 32.8005 115.601 32.8005C114.986 32.8005 114.508 32.9597 114.121 33.3462C113.871 33.6188 113.643 33.9826 113.575 34.4372H117.694ZM121.039 36.5279H113.461C113.461 37.073 113.666 37.8003 114.098 38.2321C114.326 38.4596 114.781 38.7328 115.601 38.7328C115.691 38.7328 116.329 38.7099 116.783 38.4596C117.011 38.3232 117.262 38.0958 117.421 37.7781H120.903C120.743 38.3461 120.424 39.1416 119.674 39.8689C118.923 40.5961 117.739 41.2783 115.532 41.2783C114.189 41.2783 112.574 40.9828 111.322 39.7327C110.662 39.0734 109.82 37.8232 109.82 35.8917C109.82 34.187 110.457 32.8235 111.345 31.9599C112.186 31.1415 113.506 30.4824 115.509 30.4824C116.693 30.4824 118.217 30.7328 119.423 31.8688C120.857 33.2323 121.039 35.0054 121.039 36.1414V36.5279Z" fill="#323232"/><path d="M122.566 30.8028H126.208V32.4618C126.572 31.7803 127.094 31.3255 127.641 31.053C128.187 30.7575 128.847 30.6436 129.53 30.6436C129.621 30.6436 129.78 30.6664 130.258 30.6893V34.1207C130.075 34.0303 129.575 33.757 128.687 33.757C128.21 33.757 127.55 33.8252 127.026 34.3028C126.253 35.0072 126.208 36.0752 126.208 36.621V40.9617H122.566V30.8028Z" fill="#323232"/><path d="M144.483 30.7778V40.9368H140.842V30.7778H144.483ZM142.662 24.5049C143.8 24.5049 144.71 25.4143 144.71 26.5504C144.71 27.6866 143.8 28.596 142.662 28.596C141.524 28.596 140.614 27.6866 140.614 26.5504C140.614 25.4143 141.524 24.5049 142.662 24.5049Z" fill="#323232"/><path d="M150.445 33.7557V40.9374H146.804V33.7557H145.644V30.7784H146.804V27.4375H150.445V30.7784H151.724V33.7557H150.445Z" fill="#323232"/><path d="M157.101 39.5508L152.186 30.7783H156.418L159.126 35.9826L161.766 30.7783H165.93L157.761 46.1422H153.688L157.101 39.5508Z" fill="#323232"/><path d="M137.268 34.665L136.608 34.4828C136.039 34.3236 135.743 34.3236 135.401 34.1874C135.174 34.0961 134.969 33.9377 134.969 33.6192C134.969 33.3919 135.083 33.2326 135.288 33.1193C135.516 32.983 135.765 32.9148 136.13 32.9148C136.667 32.9148 137.257 33.0954 137.731 33.2853L137.732 33.2831L138.043 33.4105L139.27 31.0968C138.678 30.8464 137.518 30.4375 136.016 30.4375C134.514 30.4375 133.149 30.8693 132.375 31.6648C131.806 32.2559 131.419 33.1645 131.419 34.1421C131.419 34.9146 131.692 35.4827 132.079 35.8921C132.625 36.4832 133.353 36.6647 133.854 36.778L134.81 37.0052C135.174 37.0963 135.538 37.1645 135.765 37.369C135.925 37.5052 135.948 37.6645 135.948 37.8236C135.948 38.0059 135.925 38.1421 135.765 38.3014C135.538 38.5059 135.105 38.5739 134.832 38.5739C134.445 38.5739 133.877 38.4829 133.421 38.3236C133.232 38.2633 133.04 38.1827 132.85 38.0936L132.849 38.0968L131.917 37.6675L130.668 40.0967C132.42 41.1647 133.854 41.2787 134.764 41.2787C135.606 41.2787 137.336 41.1876 138.519 40.0056C139.02 39.5286 139.543 38.7103 139.543 37.483C139.543 36.7328 139.27 35.9374 138.769 35.4604C138.474 35.1648 137.745 34.8013 137.268 34.665Z" fill="#323232"/><path d="M80.6478 52.125V57.8069C80.6478 58.2165 80.7161 58.8527 81.1945 59.2843C81.5584 59.6028 82.0361 59.671 82.4685 59.671C82.9236 59.671 83.356 59.6251 83.7654 59.2392C84.2205 58.7845 84.289 58.2616 84.289 57.8069V52.125H87.9298V58.466C87.9298 59.3296 87.8617 60.2621 86.9511 61.1938C85.7 62.4891 83.9478 62.6253 82.5597 62.6253C81.035 62.6253 79.1685 62.466 77.9628 61.1707C77.1892 60.3523 77.0068 59.4436 77.0068 58.466V52.125H80.6478Z" fill="#323232"/><path d="M89.8672 52.1242H93.5082V53.3973C94.5093 52.0789 95.8514 51.8975 96.739 51.8975C97.7861 51.8975 98.9007 52.1471 99.743 52.9884C100.608 53.8519 100.699 54.7155 100.699 55.8286V62.2839H97.058V57.147C97.058 56.5559 97.0802 55.6702 96.6027 55.1702C96.2615 54.8066 95.8062 54.7377 95.4421 54.7377C94.8734 54.7377 94.395 54.9429 94.0993 55.2155C93.7351 55.5561 93.5082 56.2153 93.5082 56.8292V62.2839H89.8672V52.1242Z" fill="#323232"/><path d="M109.825 58.9203C110.303 58.4885 110.599 57.8063 110.599 57.1932C110.599 56.625 110.281 55.943 109.916 55.5563C109.507 55.1247 108.938 54.875 108.255 54.875C107.481 54.875 106.958 55.2157 106.64 55.5341C106.23 55.943 105.934 56.579 105.934 57.2612C105.934 57.7841 106.161 58.3743 106.64 58.8521C107.14 59.352 107.732 59.5341 108.255 59.5341C108.846 59.5341 109.438 59.2609 109.825 58.9203ZM114.126 62.2841H110.485V61.1702C109.461 62.4885 108.118 62.6247 107.413 62.6247C105.957 62.6247 104.796 62.1478 103.84 61.2154C102.816 60.2156 102.202 58.7839 102.202 57.1701C102.202 55.443 102.931 54.0336 103.863 53.1472C104.864 52.1925 106.207 51.7837 107.458 51.7837C108.846 51.7837 109.825 52.3975 110.485 53.1019V45.7158H114.126V62.2841Z" fill="#323232"/><path d="M123.504 55.784C123.413 55.3975 123.186 54.9657 122.912 54.6931C122.434 54.2162 121.774 54.148 121.41 54.148C120.796 54.148 120.318 54.3064 119.931 54.6931C119.681 54.9657 119.453 55.3293 119.385 55.784H123.504ZM126.849 57.8748H119.271C119.271 58.4206 119.476 59.1478 119.909 59.5795C120.136 59.8069 120.591 60.0795 121.41 60.0795C121.501 60.0795 122.138 60.0566 122.594 59.8069C122.821 59.6707 123.071 59.4433 123.231 59.1249H126.712C126.553 59.693 126.235 60.4883 125.483 61.2157C124.732 61.943 123.55 62.625 121.342 62.625C119.999 62.625 118.384 62.3295 117.132 61.0793C116.472 60.4202 115.63 59.1707 115.63 57.2386C115.63 55.5343 116.268 54.1702 117.155 53.3066C117.997 52.4882 119.317 51.8291 121.319 51.8291C122.502 51.8291 124.027 52.0794 125.234 53.2155C126.667 54.5798 126.849 56.352 126.849 57.4889V57.8748Z" fill="#323232"/><path d="M140.756 45.7158H137.115V62.2841H140.756V45.7158Z" fill="#323232"/><path d="M146.719 55.5345C146.219 56.0115 145.991 56.6708 145.991 57.1937C145.991 57.7846 146.242 58.4208 146.697 58.8526C147.084 59.2162 147.721 59.5346 148.335 59.5346C148.927 59.5346 149.519 59.2842 149.974 58.8295C150.292 58.5118 150.656 58.0112 150.656 57.1937C150.656 56.7159 150.52 56.0797 149.951 55.5345C149.61 55.2162 149.086 54.8755 148.313 54.8755C147.858 54.8755 147.243 55.0339 146.719 55.5345ZM150.543 52.1249H154.184V62.2846H150.543V61.1706C149.7 62.3297 148.381 62.6252 147.379 62.6252C146.287 62.6252 144.945 62.3068 143.716 61.0114C142.737 59.9664 142.26 58.8073 142.26 57.2839C142.26 55.3753 143.01 54.034 143.83 53.2157C144.694 52.3522 146.037 51.7842 147.493 51.7842C149.132 51.7842 150.111 52.6254 150.543 53.1024V52.1249Z" fill="#323232"/><path d="M156.121 52.1242H159.762V53.3973C160.763 52.0789 162.105 51.8975 162.993 51.8975C164.04 51.8975 165.155 52.1471 165.997 52.9884C166.861 53.8519 166.953 54.7155 166.953 55.8286V62.2839H163.312V57.147C163.312 56.5559 163.334 55.6702 162.856 55.1702C162.515 54.8066 162.06 54.7377 161.696 54.7377C161.127 54.7377 160.649 54.9429 160.353 55.2155C159.989 55.5561 159.762 56.2153 159.762 56.8292V62.2839H156.121V52.1242Z" fill="#323232"/><path d="M176.079 58.9203C176.557 58.4885 176.853 57.8063 176.853 57.1932C176.853 56.625 176.534 55.943 176.171 55.5563C175.761 55.1247 175.192 54.875 174.509 54.875C173.736 54.875 173.212 55.2157 172.893 55.5341C172.483 55.943 172.188 56.579 172.188 57.2612C172.188 57.7841 172.416 58.3743 172.893 58.8521C173.395 59.352 173.985 59.5341 174.509 59.5341C175.1 59.5341 175.692 59.2609 176.079 58.9203ZM180.381 62.2841H176.74V61.1702C175.716 62.4885 174.372 62.6247 173.668 62.6247C172.21 62.6247 171.051 62.1478 170.093 61.2154C169.069 60.2156 168.457 58.7839 168.457 57.1701C168.457 55.443 169.185 54.0336 170.117 53.1472C171.119 52.1925 172.461 51.7837 173.713 51.7837C175.1 51.7837 176.079 52.3975 176.74 53.1019V45.7158H180.381V62.2841Z" fill="#323232"/><path d="M134.496 55.0793H136.067V52.0109C135.59 51.988 135.43 51.9658 135.339 51.9658C134.657 51.9658 133.997 52.0791 133.45 52.3746C132.905 52.6471 132.381 53.1019 132.017 53.784V52.1244H128.376V62.2841H132.017V57.9426C132.017 57.3975 132.062 56.3295 132.836 55.6244C133.359 55.148 134.018 55.0797 134.496 55.0795V55.0793Z" fill="#323232"/><path d="M74.4564 54.5568C73.6599 53.6933 72.6588 53.3526 71.7029 53.0571L70.4972 52.6935C69.5643 52.4203 69.2906 52.1477 69.1772 52.0113C69.0179 51.8069 68.9725 51.6026 68.9725 51.3293C68.9725 50.9886 69.132 50.7383 69.3589 50.5116C69.7461 50.148 70.2696 50.0569 70.6566 50.0569C70.9886 50.0569 71.469 50.0959 72.0779 50.3612L72.0782 50.3604L73.3348 50.9149L74.8203 48.0113C73.387 47.2611 71.6347 46.7842 70.1331 46.7842C68.2897 46.7842 67.0157 47.4433 66.2415 48.2158C65.5814 48.8749 64.8533 50.011 64.8533 51.8751C64.8533 52.6475 64.9445 53.7162 65.7179 54.5568C66.3327 55.239 67.2655 55.5795 67.9025 55.7841L68.9267 56.1024C69.9054 56.3981 70.4972 56.5565 70.8835 56.8979C71.2025 57.1705 71.3166 57.5112 71.3166 57.8067C71.3166 58.1934 71.1571 58.5339 70.9296 58.7614C70.6789 59.0338 70.2014 59.2841 69.4049 59.2841C68.6667 59.2841 67.9577 59.061 67.3264 58.7336L67.3257 58.7351L65.8149 57.9434L64.2393 60.9202C65.3316 61.6705 66.2875 62.034 66.5373 62.1252C67.6525 62.534 68.5624 62.625 69.5183 62.625C71.1342 62.625 72.704 62.3749 74.0018 61.0794C75.0941 59.9885 75.4351 58.6479 75.4351 57.2615C75.4351 56.2159 75.2305 55.3752 74.4564 54.5568Z" fill="#323232"/><path d="M174.251 34.1874C173.796 34.619 173.545 35.2552 173.545 35.8463C173.545 36.4603 173.841 37.0512 174.251 37.4601C174.683 37.8918 175.275 38.1421 175.889 38.1421C176.482 38.1421 177.072 37.8918 177.506 37.4601C177.961 37.0283 178.21 36.4374 178.21 35.8463C178.21 35.3012 177.961 34.6419 177.506 34.1874C177.096 33.8007 176.458 33.5281 175.889 33.5281C175.297 33.5281 174.661 33.8007 174.251 34.1874ZM180.419 39.5967C179.075 40.915 177.506 41.2787 175.866 41.2787C174.388 41.2787 172.749 40.9832 171.338 39.5967C170.224 38.5059 169.769 37.2104 169.769 35.8463C169.769 34.0281 170.587 32.8468 171.338 32.1195C172.18 31.3011 173.659 30.4375 175.866 30.4375C178.12 30.4375 179.575 31.3234 180.419 32.1195C181.17 32.8468 181.988 34.0281 181.988 35.8463C181.988 37.2104 181.533 38.5059 180.419 39.5967Z" fill="#323232"/><path d="M187.428 29.3463C187.428 28.8465 187.451 28.0732 187.84 27.6414C187.997 27.4607 188.315 27.2572 188.857 27.2555V27.2554L188.864 27.2549L188.87 27.2554H190V24.4597C189.478 24.2553 188.931 24.1191 188.248 24.1191C187.043 24.1191 185.654 24.4828 184.721 25.7321C183.902 26.823 183.787 27.9821 183.787 29.0731V30.778H182.514V33.7552H183.787V40.937H187.428V33.7552H189.978V30.778H187.428V29.3463Z" fill="#323232"/></svg>