<?xml version="1.0" encoding="UTF-8" standalone="no"?>
<!DOCTYPE svg PUBLIC "-//W3C//DTD SVG 1.1//EN" "http://www.w3.org/Graphics/SVG/1.1/DTD/svg11.dtd">
<svg width="100%" height="100%" viewBox="0 0 280 160" version="1.1" xmlns="http://www.w3.org/2000/svg" xmlns:xlink="http://www.w3.org/1999/xlink" xml:space="preserve" xmlns:serif="http://www.serif.com/" style="fill-rule:evenodd;clip-rule:evenodd;stroke-linejoin:round;stroke-miterlimit:2;">
    <g id="en">
        <path id="logo01svg" d="M267.083,108.451L267.083,11.884L268.889,11.884L268.889,108.451L267.083,108.451ZM265.866,145.891C265.451,146.483 264.911,146.977 264.284,147.337C263.581,147.732 262.798,147.962 261.994,148.012C261.259,148.027 260.531,147.873 259.865,147.564C259.262,147.278 258.731,146.86 258.311,146.342C257.882,145.803 257.56,145.188 257.363,144.528C257.145,143.815 257.037,143.073 257.042,142.328L257.042,132.124L258.996,132.124L258.996,142.384C258.992,142.995 259.078,143.604 259.251,144.19C259.406,144.723 259.653,145.225 259.982,145.672C260.286,146.084 260.677,146.426 261.126,146.672C261.606,146.844 262.122,146.891 262.626,146.81C263.159,146.739 263.666,146.535 264.1,146.216C264.548,145.971 264.936,145.629 265.236,145.216C265.559,144.768 265.802,144.266 265.954,143.735C266.124,143.148 266.208,142.539 266.204,141.927L266.204,132.127L267.065,132.127L267.065,141.927C267.07,142.662 266.973,143.394 266.777,144.102C266.597,144.754 266.287,145.362 265.866,145.891ZM214.69,133.094L208.56,133.094L208.56,139.488L214.027,139.488L214.027,140.458L208.56,140.458L208.56,147.711L206.037,147.711L206.037,132.124L214.69,132.124L214.69,133.094ZM203.29,11.884L205.124,11.884L205.124,108.451L203.29,108.451L203.29,11.884ZM201.559,143.61C201.294,144.186 200.961,144.727 200.565,145.222C200.19,145.692 199.755,146.111 199.271,146.467C198.801,146.809 198.283,147.079 197.733,147.267C196.612,147.647 195.397,147.647 194.276,147.267C193.727,147.079 193.209,146.809 192.74,146.467C192.255,146.111 191.82,145.693 191.446,145.222C191.05,144.728 190.716,144.186 190.452,143.61C190.173,143.001 189.96,142.364 189.818,141.71C189.665,141.016 189.589,140.307 189.592,139.596C189.589,138.9 189.665,138.206 189.818,137.527C189.96,136.887 190.173,136.266 190.452,135.673C190.717,135.11 191.051,134.583 191.446,134.103C191.823,133.644 192.258,133.236 192.74,132.888C193.21,132.553 193.728,132.29 194.276,132.108C195.4,131.744 196.609,131.744 197.733,132.108C198.282,132.29 198.8,132.553 199.271,132.888C199.752,133.236 200.187,133.645 200.565,134.103C200.96,134.583 201.294,135.111 201.559,135.673C201.838,136.266 202.051,136.888 202.193,137.527C202.345,138.206 202.421,138.9 202.419,139.596C202.421,140.305 202.345,141.012 202.193,141.705C202.052,142.361 201.841,143 201.563,143.61L201.559,143.61ZM199.851,136.768C199.7,135.992 199.432,135.244 199.057,134.548C198.748,133.969 198.305,133.471 197.767,133.096C197.246,132.749 196.631,132.569 196.005,132.579C195.369,132.567 194.745,132.747 194.213,133.096C193.674,133.47 193.231,133.968 192.923,134.548C192.551,135.244 192.288,135.993 192.143,136.768C191.961,137.7 191.873,138.648 191.88,139.598C191.873,140.566 191.961,141.532 192.143,142.483C192.288,143.278 192.551,144.047 192.923,144.765C193.23,145.359 193.671,145.873 194.213,146.265C194.74,146.627 195.366,146.815 196.005,146.804C196.634,146.814 197.251,146.625 197.767,146.265C198.308,145.872 198.749,145.358 199.057,144.765C199.432,144.047 199.7,143.279 199.851,142.483C200.039,141.533 200.129,140.566 200.122,139.598C200.131,138.648 200.042,137.7 199.855,136.768L199.851,136.768ZM147.46,146.29C147.096,146.69 146.651,147.007 146.153,147.218C145.108,147.451 144.04,147.564 142.97,147.556C142.462,147.564 141.957,147.484 141.476,147.319C141.046,147.168 140.65,146.934 140.31,146.63C139.961,146.312 139.669,145.936 139.446,145.519C139.193,145.047 138.994,144.548 138.853,144.031L139.905,143.471C140.015,143.927 140.181,144.369 140.398,144.785C140.586,145.149 140.83,145.482 141.12,145.772C141.383,146.035 141.696,146.243 142.039,146.386C142.379,146.528 142.744,146.6 143.112,146.598C143.856,146.598 144.598,146.547 145.335,146.446C145.613,146.347 145.869,146.193 146.086,145.993C146.311,145.785 146.491,145.534 146.617,145.255C146.756,144.938 146.824,144.594 146.817,144.247C146.825,143.823 146.731,143.402 146.542,143.022C146.351,142.659 146.108,142.327 145.819,142.037C145.506,141.722 145.164,141.438 144.796,141.19C144.412,140.927 142.655,140.662 142.256,140.397C141.857,140.132 141.466,139.852 141.083,139.561C140.706,139.278 140.363,138.953 140.059,138.593C139.759,138.232 139.515,137.827 139.337,137.393C139.145,136.908 139.052,136.39 139.061,135.869C139.057,135.326 139.141,134.785 139.312,134.269C139.468,133.798 139.718,133.364 140.047,132.993C140.378,132.628 140.784,132.339 141.237,132.145C141.752,131.933 142.304,131.829 142.861,131.84C143.961,131.84 146.2,132.14 146.838,132.733C147.539,133.445 148.019,134.344 148.22,135.322L147.22,135.915C147.112,135.48 146.962,135.057 146.773,134.651C146.606,134.294 146.387,133.963 146.121,133.672C145.876,133.404 145.58,133.19 145.249,133.041C144.432,132.89 143.603,132.816 142.772,132.82C142.439,132.813 142.109,132.881 141.807,133.02C141.545,133.143 141.312,133.319 141.122,133.537C140.941,133.75 140.802,133.995 140.713,134.26C140.622,134.525 140.575,134.804 140.575,135.085C140.571,135.465 140.669,135.84 140.859,136.169C141.062,136.513 141.312,136.827 141.602,137.101C141.928,137.413 142.28,137.696 142.655,137.947C143.055,138.218 144.819,138.493 145.228,138.773C145.637,139.053 146.039,139.344 146.435,139.646C146.82,139.938 147.173,140.271 147.487,140.639C147.79,140.994 148.041,141.392 148.23,141.819C148.425,142.27 148.522,142.757 148.515,143.248C148.519,143.817 148.43,144.383 148.251,144.924C148.083,145.429 147.814,145.894 147.459,146.29L147.46,146.29ZM139.518,11.884L141.352,11.884L141.352,108.451L139.518,108.451L139.518,11.884ZM133.037,147.6L128.994,140.253L128.048,140.253L128.048,139.499L128.748,139.499C129.164,139.503 129.577,139.425 129.963,139.271C130.705,138.972 131.287,138.373 131.563,137.622C131.721,137.197 131.799,136.747 131.792,136.294C131.795,135.821 131.733,135.35 131.608,134.894C131.5,134.542 131.327,134.212 131.099,133.923C130.889,133.659 130.624,133.444 130.323,133.291C130.017,133.139 129.679,133.062 129.337,133.066L126.251,133.066L126.251,147.432L124.011,147.432L124.011,132.132L129.688,132.132C130.314,132.119 130.938,132.218 131.529,132.424C132.022,132.596 132.471,132.874 132.845,133.238C133.197,133.589 133.467,134.012 133.638,134.478C133.821,135.039 133.911,135.627 133.905,136.217C133.91,136.662 133.842,137.104 133.705,137.527C133.573,137.923 133.377,138.295 133.124,138.627C132.871,138.956 132.567,139.244 132.224,139.478C131.868,139.722 131.476,139.91 131.062,140.033L135.297,147.608L133.034,147.608L133.037,147.6ZM132.228,66.553L132.228,62.915L132.228,66.553ZM107.74,132.119L108.667,132.119L103.381,147.894L102.881,147.894L97.21,132.119L99.273,132.119L103.658,144.465L107.74,132.119ZM85.774,143.496L85.774,132.124L86.634,132.124L86.634,147.899L86.183,147.899L77.612,135.283L77.545,135.283L77.545,147.543L76.669,147.543L76.669,132.124L77.762,132.124L85.7,143.5L85.776,143.5L85.774,143.496ZM75.757,11.884L77.591,11.884L77.591,108.451L75.757,108.451L75.757,11.884ZM70.904,145.891C70.489,146.484 69.949,146.977 69.321,147.337C68.619,147.732 67.836,147.963 67.032,148.012C66.297,148.027 65.569,147.873 64.903,147.564C64.3,147.278 63.769,146.86 63.349,146.342C62.92,145.803 62.598,145.188 62.401,144.528C62.183,143.815 62.074,143.073 62.079,142.328L62.079,132.124L64.034,132.124L64.034,142.384C64.03,142.995 64.116,143.604 64.289,144.19C64.443,144.723 64.69,145.225 65.019,145.672C65.324,146.084 65.715,146.425 66.164,146.672C66.643,146.843 67.157,146.89 67.659,146.81C68.193,146.739 68.7,146.535 69.134,146.216C69.581,145.97 69.969,145.629 70.269,145.216C70.592,144.768 70.835,144.266 70.987,143.735C71.157,143.148 71.241,142.539 71.237,141.927L71.237,132.127L72.098,132.127L72.098,141.927C72.103,142.662 72.006,143.394 71.809,144.102C71.631,144.753 71.324,145.362 70.904,145.891ZM11.996,11.884L13.802,11.884L13.802,108.452L11.996,108.452L11.996,11.884ZM23.612,133.119L19.402,133.119L19.402,147.596L17.448,147.596L17.448,133.119L13.23,133.119L13.23,132.119L23.612,132.119L23.612,133.119ZM29.536,139.426L35.666,139.426L35.666,132.126L37.45,132.126L37.45,147.602L35.667,147.602L35.667,140.402L29.537,140.402L29.537,147.602L27.468,147.602L27.468,132.124L29.536,132.124L29.536,139.426ZM50.703,133.094L44.573,133.094L44.573,139.46L50.04,139.46L50.04,140.43L44.573,140.43L44.573,146.713L50.703,146.713L50.703,147.686L42.05,147.686L42.05,132.124L50.703,132.124L50.703,133.094ZM93.221,147.656L91.266,147.656L91.266,132.124L93.221,132.124L93.221,147.656ZM119.942,133.094L113.812,133.094L113.812,139.46L119.279,139.46L119.279,140.43L113.812,140.43L113.812,146.713L119.942,146.713L119.942,147.686L111.289,147.686L111.289,132.124L119.942,132.124L119.942,133.094ZM155.171,147.656L153.217,147.656L153.217,132.124L155.171,132.124L155.171,147.656ZM170.293,133.119L166.079,133.119L166.079,147.596L164.125,147.596L164.125,133.119L159.912,133.119L159.912,132.119L170.293,132.119L170.293,133.119ZM178.288,139.733L182.305,132.12L183.366,132.12L178.856,140.649L178.856,147.596L176.902,147.596L176.902,140.886L172.25,132.12L174.25,132.12L178.288,139.733ZM227.722,132.119L233.2,147.599L231.212,147.599L229.434,142.585L224.448,142.585L222.611,147.599L221.633,147.599L227.233,132.119L227.722,132.119ZM224.79,141.619L229.075,141.619L226.961,135.562L224.79,141.619ZM238.99,147.659L237.032,147.659L237.032,132.124L238.987,132.124L238.987,147.656L238.99,147.659ZM245.129,146.746L253.547,146.746L253.547,147.715L242.495,147.715L242.495,147.338L250.663,133.097L242.495,133.097L242.495,132.127L253.544,132.127L245.129,146.746Z" style="fill:rgb(0,133,128);"/>
        <g transform="matrix(0.185327,0,0,0.185327,8.84778,2.95045)">
            <path d="M1339.06,343.1C1339.06,466.6 1338.66,478.9 1333.46,498.9C1325.76,528.6 1307.16,551.4 1280.66,563.5C1264.36,571 1248.96,573.5 1223.66,572.7C1203.36,572 1197.66,571 1184.16,565.2C1145.56,548.5 1123.16,517.2 1116.96,471.4C1116.16,465.2 1115.66,427.8 1115.36,346.7L1114.86,231L1165.06,231L1165.06,330.7C1165.16,473.8 1165.96,485.1 1178.16,510.7C1189.16,533.7 1208.86,545 1237.86,545C1257.96,545 1273.26,538.8 1287.16,525C1296.26,515.9 1299.66,510.1 1304.56,495.7C1311.76,473.9 1312.06,467.8 1312.06,340.7L1312.06,230L1339.06,230L1339.06,343.1ZM212.796,234.7C213.596,237.4 224.896,275 237.896,318.5C288.196,486.7 310.496,561.6 310.996,563.2C311.496,564.9 309.896,565 286.696,565L261.796,565L254.096,538.7C249.796,524.3 242.196,498.5 237.096,481.5L227.896,450.5L182.596,450.2C157.796,450.1 137.396,450.2 137.396,450.5C137.396,450.8 129.796,476.4 120.396,507.5C111.096,538.6 103.396,564.2 103.396,564.5C103.396,564.8 67.402,565.575 74.802,565.575C75.01,565.575 82.696,541.4 90.396,514.8C98.096,488.2 108.796,451.6 113.996,433.5C119.296,415.3 125.296,394.6 127.396,387.5C129.496,380.3 136.696,355.6 143.396,332.5C167.396,249.8 172.396,232.5 172.896,231.2C173.196,230.3 177.996,230 192.296,230L211.196,230L212.796,234.7ZM977.037,232.2C976.337,234 963.037,264.3 947.637,299.5C932.237,334.7 902.537,402.4 881.637,450L843.737,536.5L917.037,536.8L990.437,537L990.437,565L880.837,565C793.537,565 771.337,564.7 771.737,563.7C772.237,562.4 817.437,464.1 876.437,336C895.737,293.9 911.837,258.9 912.137,258.2C912.537,257.3 899.237,257 847.537,257L782.437,257L782.437,229L978.437,229L977.037,232.2ZM561.021,229L561.021,565L511.021,565L511.021,229L561.021,229ZM169.496,345.3C162.596,368.5 155.096,394 152.696,402C150.296,410 148.096,417.7 147.796,419.2L147.196,422L182.796,422C204.396,422 218.396,421.6 218.396,421.1C218.396,420.5 216.896,415 214.996,408.8C203.496,370.8 183.396,303.9 183.396,303.5C183.396,303.2 183.096,303 182.696,303C182.196,303 176.296,322 169.496,345.3Z" style="fill:rgb(0,133,128);"/>
        </g>
    </g>
</svg>
